<?xml version="1.0" encoding="UTF-8"?>
<!-- Created with Inkscape (http://www.inkscape.org/) -->
<svg width="64" height="64" version="1.1" viewBox="0 0 16.93 16.93" xmlns="http://www.w3.org/2000/svg" xmlns:xlink="http://www.w3.org/1999/xlink">
 <defs>
  <linearGradient id="b" x2="16.93" y1="8.467" y2="8.467" gradientTransform="translate(-8.467 3.507)" gradientUnits="userSpaceOnUse">
   <stop stop-color="#3f6" offset="0"/>
   <stop stop-color="#3bf" offset="1"/>
  </linearGradient>
  <linearGradient id="a" x1="7.89" x2="8.924" y1="12.03" y2="11.65" gradientTransform="matrix(1.125 0 0 1.125 -.398 -.8243)" gradientUnits="userSpaceOnUse">
   <stop stop-color="#fff" stop-opacity=".6" offset="0"/>
   <stop stop-color="#fff" stop-opacity=".85" offset="1"/>
  </linearGradient>
 </defs>
 <g>
  <circle transform="rotate(-45)" cx="-1.776e-15" cy="11.97" r="8.467" fill="url(#b)"/>
  <text x="4.3118258" y="7.5352292" fill="#000000" font-family="sans-serif" font-size="10.58px" stroke-width=".2646" style="line-height:1.25" xml:space="preserve"><tspan stroke-width=".2646"/></text>
  <g>
   <g>
    <path d="m6.814 12.7-2.627-7.962h1.672l2.15 6.546 0.4704 1.415z" fill="#fff" stroke-width=".2646"/>
    <path d="m7.111 12.7c1.02-3.186 3.159-9.525 3.159-9.525h2l-3.144 9.525z" fill="url(#a)"/>
   </g>
   <path d="m11.51 12.7q-0.3471 0-0.608-0.1747-0.2609-0.1747-0.4077-0.4753-0.1444-0.3005-0.1444-0.6779 0-0.3844 0.1468-0.6826 0.1491-0.3005 0.417-0.4729 0.2679-0.1724 0.629-0.1724 0.3588 0 0.6034 0.1747t0.3704 0.4753q0.1258 0.3005 0.1258 0.6779 0 0.3774-0.1281 0.6779-0.1258 0.3005-0.3774 0.4753-0.2516 0.1747-0.6267 0.1747zm0.1025-0.5638q0.212 0 0.3378-0.09551 0.1281-0.09552 0.184-0.2679 0.05591-0.1724 0.05591-0.4007 0-0.2283-0.05591-0.4007-0.05591-0.1724-0.1794-0.2679-0.1211-0.09552-0.3192-0.09552-0.212 0-0.3494 0.1048-0.1351 0.1025-0.2004 0.2772-0.06523 0.1724-0.06523 0.3821 0 0.212 0.0629 0.3867 0.06289 0.1724 0.1934 0.2749 0.1305 0.1025 0.3355 0.1025zm0.4985 1.612v-1.91h0.0792v-1.724h0.5591v3.634z" fill="#fff" stroke-width=".2646"/>
  </g>
  <g transform="translate(18.19 -9.739)" stroke-width=".2646" aria-label="Q">
   <path d="m5.309 21.13-1.333-1.327 0.5334-0.5334 1.327 1.327zm-1.613 0q-0.6858 0-1.184-0.2984-0.4953-0.2984-0.7652-0.835-0.2667-0.5366-0.2667-1.248t0.2667-1.248q0.2699-0.5366 0.7652-0.835 0.4985-0.2984 1.184-0.2984t1.181 0.2984q0.4985 0.2984 0.7652 0.835 0.2699 0.5366 0.2699 1.248t-0.2699 1.248q-0.2667 0.5366-0.7652 0.835-0.4953 0.2984-1.181 0.2984zm0-0.8128q0.435 0.0064 0.7239-0.1873 0.2889-0.1937 0.4318-0.5493 0.146-0.3556 0.146-0.8318t-0.146-0.8255q-0.1429-0.3492-0.4318-0.5429-0.2889-0.1937-0.7239-0.2-0.435-0.0063-0.7239 0.1873-0.2889 0.1937-0.435 0.5493-0.1429 0.3556-0.1429 0.8318t0.1429 0.8255q0.146 0.3492 0.435 0.5429t0.7239 0.2z" fill="#fff"/>
  </g>
 </g>
</svg>
